<svg id="레이어_1" data-name="레이어 1" xmlns="http://www.w3.org/2000/svg" viewBox="0 0 454.46 188.93"><defs><style>.cls-1{fill:none;stroke:#fff;stroke-linecap:round;stroke-linejoin:round;}</style></defs><path class="cls-1" d="M194.81,18.22s1.78,36,1.78,40.45,1.78,32.44,2.67,40,3.55,48.44,3.55,48.44S156.59,128,153,128.44s-70.23-22.22-83.11-22.22-59.12-11.55-64-15.55,8.44,6.22,26.66,6.22,114.22-.45,120.89-.45,145.78-.88,157.78-.88,58.22,1.77,61.78,1.77,80,1.78,85.33-3.11c0,0-15.11-.44-29.33-.44s-54.23-2.67-54.23-2.67S312.59,84,306.81,84H263.7l-.22-10.81-1.18,6.74L260.07,78l-.66,3.11a21.36,21.36,0,0,1-1.71,3.63c-.44.37-1-10.67-1-9.78s-.37,11-.37,11L254.15,82s-.3-5.56-.3-5.33-1.11,6.74-1.11,6.74l-1.26,4.15-1.85-6.75s-36.3,4.45-34.44,5.56,25.4,4.3,39.48,3.63,59.4.15,63.55.15,39.34.59,42.37,1S379.93,92,381,91s-.22-6.08-.22-6.08" transform="translate(-4.41 -3.57)"/><path class="cls-1" d="M361.19,13.63s-1.78-8-.3-9.48.3,19.55-.59,26.37-4.15,51.85-3.86,56.29-.59,34.38.3,37.93,1.48,22.22,0,29.63S355.26,190.81,360,192" transform="translate(-4.41 -3.57)"/><path class="cls-1" d="M379.85,170.67s.3,4.14-4.74,4.14" transform="translate(-4.41 -3.57)"/></svg>