<svg id="레이어_1" data-name="레이어 1" xmlns="http://www.w3.org/2000/svg" viewBox="0 0 113.39 74.39"><defs><style>.cls-1{fill:#231815;}</style></defs><path d="M29,33.67v9.45H21.81v8.73H14.17v56.21H112.7V99.33h7.64V89.89h7.22V33.67Zm79.3,70H18.54V56.21h89.79V103.7ZM116,95H112.7V51.85H26.18V47.48H116V95Zm7.22-9.45h-2.85V43.12H33.4V38h89.79Z" transform="translate(-14.17 -33.67)"/><path d="M61.72,64.29A16.23,16.23,0,1,1,45.49,80.52,16.25,16.25,0,0,1,61.72,64.29m0-5A21.23,21.23,0,1,0,83,80.52,21.22,21.22,0,0,0,61.72,59.29Z" transform="translate(-14.17 -33.67)"/><path class="cls-1" d="M73.39,81.16H70.32L68,90.36H64.44L61.71,78.17,59,90.36H55.42l-2.31-9.2H50v-3h2.34L51,72.75h3.8l1.1,5.44h2.75l1.19-5.44h3.91L65,78.19H67.7l1.11-5.44h3.6l-1.36,5.44h2.34ZM57.24,84.64,58,81.16H56.53Zm9.88-3.48H65.63l.78,3.54Z" transform="translate(-14.17 -33.67)"/></svg>