<svg id="레이어_1" data-name="레이어 1" xmlns="http://www.w3.org/2000/svg" viewBox="0 0 107.58 107.58"><defs><style>.cls-1{fill:#231815;}</style></defs><path class="cls-1" d="M56.22,8.22A48.79,48.79,0,1,1,7.44,57,48.84,48.84,0,0,1,56.22,8.22m0-5A53.79,53.79,0,1,0,110,57,53.79,53.79,0,0,0,56.22,3.22Z" transform="translate(-2.44 -3.22)"/><path class="cls-1" d="M56.22,19a38,38,0,1,1-38,38,38.07,38.07,0,0,1,38-38m0-5a43,43,0,1,0,43,43,43,43,0,0,0-43-43Z" transform="translate(-2.44 -3.22)"/><path class="cls-1" d="M41.23,34.85H58.55a22.47,22.47,0,0,1,10,2,14.87,14.87,0,0,1,6.39,5.76,16.68,16.68,0,0,1,2.21,8.69,16.93,16.93,0,0,1-2.21,8.77,14.87,14.87,0,0,1-6.39,5.79,22.61,22.61,0,0,1-10,2H51.3V80H41.23ZM58.11,59a10,10,0,0,0,6.62-2,7.08,7.08,0,0,0,2.35-5.7,6.93,6.93,0,0,0-2.35-5.65,10.16,10.16,0,0,0-6.62-1.94H51.3V59Z" transform="translate(-2.44 -3.22)"/></svg>