<svg id="레이어_1" data-name="레이어 1" xmlns="http://www.w3.org/2000/svg" viewBox="0 0 99.21 74.93"><defs><style>.cls-1{fill:#231815;}</style></defs><path class="cls-1" d="M85.55,94.48H25.81a9.33,9.33,0,0,1-9.31-9.31v-26a2,2,0,0,1,0-.35c.24-4,2.25-7.85,5.7-11.13l-2.24,1a6.58,6.58,0,0,1-8.63-3.45L6.73,34.42a6.58,6.58,0,0,1,3.44-8.63l13.32-5.71a6.42,6.42,0,0,1,1.66-.47,1.76,1.76,0,0,1,.46-.06h60a6.44,6.44,0,0,1,2.53.53l13.32,5.71h0a6.57,6.57,0,0,1,3.44,8.63l-4.63,10.8a6.58,6.58,0,0,1-8.63,3.45l-2.69-1.16c3.58,3.33,5.67,7.21,5.91,11.33a1.87,1.87,0,0,1,0,.34v26A9.33,9.33,0,0,1,85.55,94.48Zm-65.67-35V85.17a5.94,5.94,0,0,0,5.93,5.93H85.55a5.94,5.94,0,0,0,5.93-5.93V59.44c0-.06,0-.13,0-.2-.27-7-8-13.68-19.81-16.9a1.69,1.69,0,0,1-1.25-1.63V34a1.69,1.69,0,0,1,1.69-1.69h3.65A2.4,2.4,0,0,1,78,35.66a3.21,3.21,0,0,0,1.67,4.18L93,45.56a3.19,3.19,0,0,0,2.43,0,3.14,3.14,0,0,0,1.75-1.7l4.64-10.8a3.2,3.2,0,0,0-1.67-4.19L86.77,23.18a3.23,3.23,0,0,0-1.27-.25H25.77a3.1,3.1,0,0,0-.94.24L11.5,28.9a3.2,3.2,0,0,0-1.67,4.19l4.64,10.8a3.19,3.19,0,0,0,4.18,1.67L32,39.84a3.21,3.21,0,0,0,1.67-4.18,2.4,2.4,0,0,1,2.21-3.36h3.57A1.69,1.69,0,0,1,41.12,34v6.67a1.7,1.7,0,0,1-1.25,1.64c-11.86,3.21-19.7,9.86-20,16.94A1.23,1.23,0,0,1,19.88,59.44Zm53.9-20,1.21.38c-.07-.15-.14-.3-.2-.46a6.52,6.52,0,0,1-.36-3.67h-.65ZM37.17,35.68a6.57,6.57,0,0,1-.51,4q.53-.18,1.08-.33V35.68ZM55.8,87.33A20.74,20.74,0,1,1,76.54,66.59,20.76,20.76,0,0,1,55.8,87.33Zm0-38.09A17.36,17.36,0,1,0,73.16,66.59,17.37,17.37,0,0,0,55.8,49.24Zm8.63-8.38-.22,0a65,65,0,0,0-16.9,0,1.69,1.69,0,0,1-1.92-1.67V34a1.69,1.69,0,0,1,1.69-1.69H64.43A1.69,1.69,0,0,1,66.12,34v5.18a1.68,1.68,0,0,1-1.69,1.69Zm-8.75-4a69.11,69.11,0,0,1,7.06.37V35.68h-14v1.57A66.49,66.49,0,0,1,55.68,36.89Z" transform="translate(-6.19 -19.55)"/><circle class="cls-1" cx="55.8" cy="66.59" r="13.33" transform="translate(-25.03 91.52) rotate(-80.83)"/></svg>