<svg id="레이어_1" data-name="레이어 1" xmlns="http://www.w3.org/2000/svg" viewBox="0 0 116.28 116.28"><defs><style>.cls-1{fill:#231815;}.cls-2{fill:none;stroke:#231815;stroke-miterlimit:10;stroke-width:5px;}</style></defs><path class="cls-1" d="M70.45,17.72A53.15,53.15,0,1,1,17.31,70.87,53.21,53.21,0,0,1,70.45,17.72m0-5A58.15,58.15,0,1,0,128.6,70.87,58.15,58.15,0,0,0,70.45,12.72Z" transform="translate(-12.31 -12.72)"/><line class="cls-2" x1="58.14" y1="19.56" x2="58.14" y2="9.56"/><line class="cls-2" x1="38.43" y1="24.97" x2="33.43" y2="16.31"/><line class="cls-2" x1="24.07" y1="39.51" x2="15.41" y2="34.51"/><line class="cls-2" x1="18.9" y1="59.29" x2="8.9" y2="59.29"/><line class="cls-2" x1="24.31" y1="79" x2="15.65" y2="84"/><line class="cls-2" x1="38.86" y1="93.37" x2="33.86" y2="102.03"/><line class="cls-2" x1="58.63" y1="98.54" x2="58.63" y2="108.54"/><line class="cls-2" x1="78.35" y1="93.12" x2="83.35" y2="101.78"/><line class="cls-2" x1="92.71" y1="78.58" x2="101.37" y2="83.58"/><line class="cls-2" x1="97.88" y1="58.8" x2="107.88" y2="58.8"/><line class="cls-2" x1="92.46" y1="39.09" x2="101.12" y2="34.09"/><line class="cls-2" x1="77.92" y1="24.72" x2="82.92" y2="16.06"/><line class="cls-2" x1="58.55" y1="24.51" x2="58.55" y2="60.2"/><line class="cls-2" x1="56.09" y1="58.53" x2="83.06" y2="58.53"/></svg>