<svg id="레이어_1" data-name="레이어 1" xmlns="http://www.w3.org/2000/svg" viewBox="0 0 92.89 111.25"><path d="M82.25,21.08H30.47A10.24,10.24,0,0,0,20.25,31.3V52.42A10.24,10.24,0,0,0,30.47,62.64H82.25A10.23,10.23,0,0,0,92.47,52.42V31.3A10.23,10.23,0,0,0,82.25,21.08ZM30.47,58.64a6.23,6.23,0,0,1-6.22-6.22V31.3a6.23,6.23,0,0,1,6.22-6.22H82.25a6.23,6.23,0,0,1,6.22,6.22V52.42a6.23,6.23,0,0,1-6.22,6.22Z" transform="translate(-9.78 -1.39)"/><path d="M57.28,1.39a8.23,8.23,0,0,0-8.22,8.22V10H26A16.2,16.2,0,0,0,9.78,26.14V85.8a16.17,16.17,0,0,0,14.17,16v2.59a8.22,8.22,0,1,0,16.44,0V102H70.17v2.45a8.22,8.22,0,0,0,16.44,0V102A16.18,16.18,0,0,0,102.67,85.8V26.14A16.2,16.2,0,0,0,86.5,10h-21V9.61a8.23,8.23,0,0,0-8.22-8.22ZM53.06,10V9.61a4.22,4.22,0,0,1,8.44,0V10ZM26,98a11.48,11.48,0,0,1-1.86-.16,12.18,12.18,0,0,1-10.31-12V26.14A12.18,12.18,0,0,1,26,14H86.5A12.18,12.18,0,0,1,98.67,26.14V85.8A12.18,12.18,0,0,1,86.5,98H26Zm52.44,10.67a4.23,4.23,0,0,1-4.22-4.22V102h8.44v2.45a4.23,4.23,0,0,1-4.22,4.22Zm-46.22,0A4.23,4.23,0,0,1,28,104.42V102h8.44v2.45a4.23,4.23,0,0,1-4.22,4.22Z" transform="translate(-9.78 -1.39)"/><path d="M28.28,71.64A3.33,3.33,0,1,1,25,75a3.33,3.33,0,0,1,3.33-3.33m0-3A6.33,6.33,0,1,0,34.61,75a6.32,6.32,0,0,0-6.33-6.33Z" transform="translate(-9.78 -1.39)"/><path d="M84.84,71.64A3.33,3.33,0,1,1,81.5,75a3.34,3.34,0,0,1,3.34-3.33m0-3A6.33,6.33,0,1,0,91.17,75a6.33,6.33,0,0,0-6.33-6.33Z" transform="translate(-9.78 -1.39)"/><path d="M70,69.75H42.7a2.22,2.22,0,1,0,0,4.44H70a2.22,2.22,0,0,0,0-4.44Z" transform="translate(-9.78 -1.39)"/><path d="M70,78H42.7a2.23,2.23,0,1,0,0,4.45H70A2.23,2.23,0,0,0,70,78Z" transform="translate(-9.78 -1.39)"/><path d="M70,86.19H42.7a2.23,2.23,0,1,0,0,4.45H70a2.23,2.23,0,0,0,0-4.45Z" transform="translate(-9.78 -1.39)"/></svg>