<svg id="레이어_1" data-name="레이어 1" xmlns="http://www.w3.org/2000/svg" viewBox="0 0 256.84 62.33"><defs><style>.cls-1{fill:#fff;}</style></defs><polygon class="cls-1" points="10.35 0.23 0 0.23 0 51.98 0 62.33 10.35 62.33 34.81 62.33 34.81 51.98 10.35 51.98 10.35 0.23"/><polygon class="cls-1" points="47.04 0.23 47.04 10.35 47.04 26.34 47.04 36.69 47.04 51.98 47.04 62.33 57.39 62.33 78.56 62.33 78.56 51.98 57.39 51.98 57.39 36.69 78.56 36.69 78.56 26.34 57.39 26.34 57.39 10.35 78.56 10.35 78.56 0 47.04 0 47.04 0.23"/><polygon class="cls-1" points="255.19 0.23 246.49 0.23 245.08 0.23 229.08 49.33 213.09 0.23 212.38 0.23 202.98 0.23 202.03 0.23 202.03 62.33 212.38 62.33 212.38 28.46 223.67 62.33 224.85 62.33 233.32 62.33 234.49 62.33 246.49 26.34 246.49 62.33 256.84 62.33 256.84 0.23 255.19 0.23"/><polygon class="cls-1" points="98.08 0.23 98.08 10.35 98.08 26.34 98.08 36.69 98.08 51.98 98.08 62.33 108.43 62.33 129.59 62.33 129.59 51.98 108.43 51.98 108.43 36.69 129.59 36.69 129.59 26.34 108.43 26.34 108.43 10.35 129.59 10.35 129.59 0 98.08 0 98.08 0.23"/><path class="cls-1" d="M192.18,67.28a10.47,10.47,0,0,1-20.93,0V26H161.14V66.57a20.58,20.58,0,1,0,41.16,0V26H192.18Z" transform="translate(-13.31 -25.53)"/></svg>