<svg id="레이어_1" data-name="레이어 1" xmlns="http://www.w3.org/2000/svg" viewBox="0 0 99.21 85.51"><defs><style>.cls-1{fill:#231815;}</style></defs><path class="cls-1" d="M105.11,14.67a1.83,1.83,0,0,0-1.6-.29L72.22,23.44,40.93,14.38a1.75,1.75,0,0,0-.6-.06,1.81,1.81,0,0,0-.61.06L7.93,23.59a1.8,1.8,0,0,0-1.31,1.74V98a1.79,1.79,0,0,0,2.32,1.74l31.39-9.08,31.39,9.08h0a1.55,1.55,0,0,0,.92,0h0l31.8-9.2a1.82,1.82,0,0,0,1.31-1.74V16.12A1.84,1.84,0,0,0,105.11,14.67ZM38.42,87.43,10.24,95.59V26.69l28.18-8.16Zm3.82-68.9,28.17,8.16v68.9L42.24,87.43Zm60,68.9L74,95.59V26.69l28.18-8.16Z" transform="translate(-6.62 -14.31)"/><path class="cls-1" d="M22.19,44.11a5.34,5.34,0,1,1,5.34-5.34A5.34,5.34,0,0,1,22.19,44.11Zm0-8.5a3.17,3.17,0,1,0,3.17,3.16A3.17,3.17,0,0,0,22.19,35.61Z" transform="translate(-6.62 -14.31)"/><path class="cls-1" d="M52,58.15a5.34,5.34,0,1,1,5.34-5.34A5.35,5.35,0,0,1,52,58.15Zm0-8.5a3.16,3.16,0,1,0,3.17,3.16A3.17,3.17,0,0,0,52,49.65Z" transform="translate(-6.62 -14.31)"/><path class="cls-1" d="M85.5,47a5.34,5.34,0,1,1,5.34-5.34A5.35,5.35,0,0,1,85.5,47Zm0-8.5a3.16,3.16,0,1,0,3.17,3.16A3.17,3.17,0,0,0,85.5,38.48Z" transform="translate(-6.62 -14.31)"/><path class="cls-1" d="M91.5,77.06a5.34,5.34,0,1,1,5.34-5.34A5.35,5.35,0,0,1,91.5,77.06Zm0-8.5a3.16,3.16,0,1,0,3.16,3.16A3.16,3.16,0,0,0,91.5,68.56Z" transform="translate(-6.62 -14.31)"/><path class="cls-1" d="M30.7,82.21A5.34,5.34,0,1,1,36,76.87,5.34,5.34,0,0,1,30.7,82.21Zm0-8.5a3.17,3.17,0,1,0,3.16,3.16A3.17,3.17,0,0,0,30.7,73.71Z" transform="translate(-6.62 -14.31)"/><polygon class="cls-1" points="41.51 34.84 32.33 20.57 20.24 25.47 19.42 23.45 33.18 17.88 43.33 33.66 41.51 34.84"/><polygon class="cls-1" points="49.82 39.57 49.39 37.44 64.69 34.33 73.93 26.5 75.34 28.16 65.67 36.35 49.82 39.57"/><rect class="cls-1" x="88.19" y="45.37" width="2.18" height="22.32" transform="translate(-16.1 4.62) rotate(-11.5)"/><polygon class="cls-1" points="65.24 68 33.36 56.54 27.89 60.6 26.59 58.85 33 54.1 65.11 65.64 80.52 58.15 81.47 60.11 65.24 68"/></svg>