<svg id="레이어_1" data-name="레이어 1" xmlns="http://www.w3.org/2000/svg" viewBox="0 0 99.21 94.81"><defs><style>.cls-1{fill:#231815;}</style></defs><path class="cls-1" d="M104.42,50.24a4.64,4.64,0,0,0-2.57-7.92L75.62,38.51A4.66,4.66,0,0,1,72.12,36L60.39,12.2a4.64,4.64,0,0,0-8.33,0L40.33,36a4.66,4.66,0,0,1-3.5,2.54L10.6,42.32A4.64,4.64,0,0,0,8,50.24l19,18.5a4.66,4.66,0,0,1,1.33,4.11L23.86,99a4.64,4.64,0,0,0,6.74,4.9L54.06,91.54a4.69,4.69,0,0,1,4.33,0l23.46,12.34A4.64,4.64,0,0,0,88.59,99L84.11,72.85a4.66,4.66,0,0,1,1.33-4.11ZM81.76,65a9.91,9.91,0,0,0-2.85,8.77l4.27,24.88L60.84,86.87a9.91,9.91,0,0,0-9.23,0L29.27,98.62l4.27-24.88A9.91,9.91,0,0,0,30.69,65L12.62,47.35l25-3.63a9.92,9.92,0,0,0,7.47-5.42L56.22,15.67,67.39,38.3a9.92,9.92,0,0,0,7.47,5.42l25,3.63Z" transform="translate(-6.62 -9.61)"/><path class="cls-1" d="M40.78,48.51H46l10.19,17.4,10.19-17.4h5.26V79.62h-6.6V62.55l-6.85,12h-4l-6.85-12V79.62h-6.6Z" transform="translate(-6.62 -9.61)"/></svg>