<svg id="레이어_1" data-name="레이어 1" xmlns="http://www.w3.org/2000/svg" viewBox="0 0 67.2 99.21"><defs><style>.cls-1{fill:#231815;}</style></defs><path class="cls-1" d="M56.22,10.69a29.62,29.62,0,0,1,29.6,29.6c0,12.7-19.07,43.22-29.6,58.62C45.7,83.51,26.63,53,26.63,40.29a29.62,29.62,0,0,1,29.59-29.6m0,46.72A20.41,20.41,0,1,0,35.82,37a20.43,20.43,0,0,0,20.4,20.41m0-50.72a33.59,33.59,0,0,0-33.59,33.6c0,18.55,33.59,65.61,33.59,65.61s33.6-47.06,33.6-65.61a33.6,33.6,0,0,0-33.6-33.6Zm0,46.72A16.41,16.41,0,1,1,72.63,37,16.41,16.41,0,0,1,56.22,53.41Z" transform="translate(-22.63 -6.69)"/></svg>