<?xml version="1.0" encoding="utf-8"?>
<!-- Generator: Adobe Illustrator 25.4.1, SVG Export Plug-In . SVG Version: 6.00 Build 0)  -->
<svg version="1.1" id="레이어_1" xmlns="http://www.w3.org/2000/svg" xmlns:xlink="http://www.w3.org/1999/xlink" x="0px"
	 y="0px" viewBox="0 0 500 420" style="enable-background:new 0 0 500 420;" xml:space="preserve">
<style type="text/css">
	.st0{fill:#FFFFFF;}
</style>
<g>
	<g>
		<path class="st0" d="M173.2,207.1h-14.9v38.7h-10.2v-38.7h-14.9v-9.5h40V207.1z"/>
		<path class="st0" d="M187.5,197.6v48.2h-10.2v-48.2H187.5z"/>
		<path class="st0" d="M204.2,243.8c-3.7-2.2-6.7-5.2-8.8-9.1c-2.1-3.8-3.2-8.2-3.2-13c0-4.8,1.1-9.1,3.2-13c2.1-3.8,5-6.9,8.8-9.1
			c3.7-2.2,7.9-3.3,12.6-3.3c4.1,0,7.7,0.8,11,2.4c3.2,1.6,5.9,3.7,7.9,6.5c2,2.8,3.4,5.9,4,9.3h-10.3c-0.6-2.4-2-4.3-4.2-5.9
			c-2.2-1.6-4.9-2.4-8.1-2.4c-2.7,0-5.2,0.7-7.4,2c-2.2,1.3-3.9,3.2-5.2,5.5c-1.3,2.3-1.9,5-1.9,8c0,2.9,0.6,5.6,1.9,7.9
			c1.3,2.4,3,4.2,5.2,5.5c2.2,1.3,4.7,2,7.4,2c2.1,0,4.1-0.4,5.9-1.3c1.9-0.9,3.4-2,4.6-3.4c1.2-1.4,2-2.8,2.2-4.3h10.3
			c-0.5,3.3-1.8,6.4-3.9,9.2c-2.1,2.9-4.8,5.2-8.2,7c-3.4,1.8-7.1,2.6-11.2,2.6C212.1,247,207.9,245.9,204.2,243.8z"/>
		<path class="st0" d="M261,227.4l-6.2,7.6v10.8h-10.2v-48.2h10.2v22.7l18.3-22.7h12.5l-18,21.8l18.9,26.4h-12.8L261,227.4z"/>
		<path class="st0" d="M289.6,197.6h34.1v9.4h-23.8v9.8h21.9v9.4h-21.9v10.4h24.3v9.4h-34.6V197.6z"/>
		<path class="st0" d="M367.1,207.1h-14.9v38.7h-10.2v-38.7H327v-9.5h40V207.1z"/>
	</g>
	<g>
		<polygon class="st0" points="180.3,139.4 185.1,149.2 195.8,150.7 188,158.3 189.9,169 180.3,164 170.6,169 172.5,158.3 
			164.7,150.7 175.5,149.2 		"/>
		<polygon class="st0" points="214.8,139.4 219.6,149.2 230.4,150.7 222.6,158.3 224.5,169 214.8,164 205.2,169 207.1,158.3 
			199.3,150.7 210,149.2 		"/>
		<polygon class="st0" points="249.4,139.4 254.2,149.2 265,150.7 257.2,158.3 259,169 249.4,164 239.8,169 241.6,158.3 
			233.9,150.7 244.6,149.2 		"/>
		<polygon class="st0" points="284,139.4 288.8,149.2 299.6,150.7 291.8,158.3 293.6,169 284,164 274.4,169 276.2,158.3 
			268.4,150.7 279.2,149.2 		"/>
		<polygon class="st0" points="318.6,139.4 323.4,149.2 334.1,150.7 326.4,158.3 328.2,169 318.6,164 309,169 310.8,158.3 
			303,150.7 313.8,149.2 		"/>
	</g>
	<g>
		<path class="st0" d="M407.2,51.4H95.1c-22.9,0-41.5,18.6-41.5,41.5c0,21.8,16.8,39.6,38.1,41.3v212.7c0,18.7,15.1,33.8,33.8,33.8
			h252.9c18.7,0,33.8-15.1,33.8-33.8V134.1c20.5-2.5,36.4-20,36.4-41.2C448.7,70,430.1,51.4,407.2,51.4z M395,117.1v17.3v137.7h-2.9
			c-4.7,0-8.5,3.8-8.5,8.5c0,4.7,3.8,8.5,8.5,8.5h2.9v57.7c0,9.1-7.4,16.5-16.5,16.5H125.6c-9.1,0-16.5-7.4-16.5-16.5v-57.7h3
			c4.7,0,8.5-3.8,8.5-8.5c0-4.7-3.8-8.5-8.5-8.5h-3V134.4v-17.3v-10.4H395V117.1z M412.3,116.6V89.4H91.7v27.4
			c-11.8-1.7-20.8-11.7-20.8-23.9c0-13.3,10.9-24.2,24.2-24.2h312.1c13.3,0,24.2,10.9,24.2,24.2
			C431.4,104.5,423.2,114.2,412.3,116.6z"/>
		<path class="st0" d="M194.4,289.2h16.5c4.7,0,8.5-3.8,8.5-8.5c0-4.7-3.8-8.5-8.5-8.5h-16.5c-4.7,0-8.5,3.8-8.5,8.5
			C185.9,285.4,189.7,289.2,194.4,289.2z"/>
		<path class="st0" d="M145,289.2h16.5c4.7,0,8.5-3.8,8.5-8.5c0-4.7-3.8-8.5-8.5-8.5H145c-4.7,0-8.5,3.8-8.5,8.5
			C136.5,285.4,140.3,289.2,145,289.2z"/>
		<path class="st0" d="M243.8,289.2h16.5c4.7,0,8.5-3.8,8.5-8.5c0-4.7-3.8-8.5-8.5-8.5h-16.5c-4.7,0-8.5,3.8-8.5,8.5
			C235.3,285.4,239.1,289.2,243.8,289.2z"/>
		<path class="st0" d="M293.2,289.2h16.5c4.7,0,8.5-3.8,8.5-8.5c0-4.7-3.8-8.5-8.5-8.5h-16.5c-4.7,0-8.5,3.8-8.5,8.5
			C284.7,285.4,288.5,289.2,293.2,289.2z"/>
		<path class="st0" d="M342.7,289.2h16.5c4.7,0,8.5-3.8,8.5-8.5c0-4.7-3.8-8.5-8.5-8.5h-16.5c-4.7,0-8.5,3.8-8.5,8.5
			C334.1,285.4,338,289.2,342.7,289.2z"/>
	</g>
	<g>
		<rect x="176.6" y="307.3" class="st0" width="7" height="39.1"/>
		<rect x="208.4" y="307.3" class="st0" width="7" height="39.1"/>
		<rect x="243" y="307.3" class="st0" width="7" height="39.1"/>
		<rect x="190" y="307.3" class="st0" width="3.5" height="39.1"/>
		<rect x="195.6" y="307.3" class="st0" width="3.5" height="39.1"/>
		<rect x="228.9" y="307.3" class="st0" width="3.5" height="39.1"/>
		<rect x="237.7" y="307.3" class="st0" width="3.5" height="39.1"/>
		<rect x="185.6" y="307.3" class="st0" width="1.8" height="39.1"/>
		<rect x="200.8" y="307.3" class="st0" width="1.8" height="39.1"/>
		<rect x="204.7" y="307.3" class="st0" width="1.8" height="39.1"/>
		<rect x="234.2" y="307.3" class="st0" width="1.8" height="39.1"/>
		<rect x="219.8" y="307.3" class="st0" width="1.8" height="39.1"/>
		<rect x="223.2" y="307.3" class="st0" width="1.8" height="39.1"/>
		<rect x="217.5" y="307.3" class="st0" width="0.7" height="39.1"/>
		<rect x="226.5" y="307.3" class="st0" width="0.7" height="39.1"/>
		<rect x="252.3" y="307.3" class="st0" width="7" height="39.1"/>
		<rect x="284.1" y="307.3" class="st0" width="7" height="39.1"/>
		<rect x="318.6" y="307.3" class="st0" width="7" height="39.1"/>
		<rect x="265.6" y="307.3" class="st0" width="3.5" height="39.1"/>
		<rect x="271.2" y="307.3" class="st0" width="3.5" height="39.1"/>
		<rect x="304.5" y="307.3" class="st0" width="3.5" height="39.1"/>
		<rect x="313.4" y="307.3" class="st0" width="3.5" height="39.1"/>
		<rect x="261.2" y="307.3" class="st0" width="1.8" height="39.1"/>
		<rect x="276.5" y="307.3" class="st0" width="1.8" height="39.1"/>
		<rect x="280.4" y="307.3" class="st0" width="1.8" height="39.1"/>
		<rect x="309.8" y="307.3" class="st0" width="1.8" height="39.1"/>
		<rect x="295.5" y="307.3" class="st0" width="1.8" height="39.1"/>
		<rect x="298.8" y="307.3" class="st0" width="1.8" height="39.1"/>
		<rect x="293.1" y="307.3" class="st0" width="0.7" height="39.1"/>
		<rect x="302.2" y="307.3" class="st0" width="0.7" height="39.1"/>
	</g>
</g>
</svg>
