<svg id="레이어_1" data-name="레이어 1" xmlns="http://www.w3.org/2000/svg" viewBox="0 0 395.06 329.35"><defs><style>.cls-1{fill:#fff;}</style></defs><path class="cls-1" d="M173.21,207.15h-14.9v38.7H148.08v-38.7h-14.9v-9.53h40Z" transform="translate(-53.62 -51.39)"/><path class="cls-1" d="M187.54,197.62v48.23H177.31V197.62Z" transform="translate(-53.62 -51.39)"/><path class="cls-1" d="M204.16,243.75a23.33,23.33,0,0,1-8.77-9.05,28.12,28.12,0,0,1,0-26,23.29,23.29,0,0,1,8.77-9.06,24.36,24.36,0,0,1,12.57-3.28,24.94,24.94,0,0,1,11,2.36,21.1,21.1,0,0,1,7.9,6.51,22.52,22.52,0,0,1,4,9.29H229.26a10,10,0,0,0-4.19-5.91,13.69,13.69,0,0,0-8.12-2.37,14.18,14.18,0,0,0-7.42,2,13.88,13.88,0,0,0-5.2,5.51,17.64,17.64,0,0,0,0,15.89,13.87,13.87,0,0,0,5.2,5.53,14.18,14.18,0,0,0,7.42,2,13.77,13.77,0,0,0,5.93-1.3,13.91,13.91,0,0,0,4.61-3.37,8.8,8.8,0,0,0,2.22-4.26h10.35a20.73,20.73,0,0,1-3.88,9.23,23.16,23.16,0,0,1-8.24,7A24,24,0,0,1,216.73,247,24.36,24.36,0,0,1,204.16,243.75Z" transform="translate(-53.62 -51.39)"/><path class="cls-1" d="M261,227.45,254.79,235v10.83H244.55V197.62h10.24v22.73l18.33-22.73h12.54l-18,21.84,18.95,26.39H273.85Z" transform="translate(-53.62 -51.39)"/><path class="cls-1" d="M289.59,197.62h34.07V207H299.82v9.82h21.87v9.36H299.82V236.5h24.35v9.35H289.59Z" transform="translate(-53.62 -51.39)"/><path class="cls-1" d="M367.07,207.15h-14.9v38.7H341.93v-38.7H327v-9.53h40Z" transform="translate(-53.62 -51.39)"/><polygon class="cls-1" points="126.64 88.04 131.44 97.78 142.19 99.34 134.41 106.92 136.25 117.63 126.64 112.58 117.02 117.63 118.86 106.92 111.08 99.34 121.83 97.78 126.64 88.04"/><polygon class="cls-1" points="161.22 88.04 166.02 97.78 176.77 99.34 169 106.92 170.83 117.63 161.22 112.58 151.6 117.63 153.44 106.92 145.66 99.34 156.41 97.78 161.22 88.04"/><polygon class="cls-1" points="195.8 88.04 200.6 97.78 211.35 99.34 203.58 106.92 205.41 117.63 195.8 112.58 186.18 117.63 188.02 106.92 180.24 99.34 190.99 97.78 195.8 88.04"/><polygon class="cls-1" points="230.38 88.04 235.19 97.78 245.94 99.34 238.16 106.92 239.99 117.63 230.38 112.58 220.76 117.63 222.6 106.92 214.82 99.34 225.57 97.78 230.38 88.04"/><polygon class="cls-1" points="264.96 88.04 269.77 97.78 280.52 99.34 272.74 106.92 274.57 117.63 264.96 112.58 255.34 117.63 257.18 106.92 249.4 99.34 260.15 97.78 264.96 88.04"/><path class="cls-1" d="M407.18,51.39h-312a41.48,41.48,0,0,0-3.38,82.83V346.91a33.82,33.82,0,0,0,33.82,33.82H378.44a33.82,33.82,0,0,0,33.81-33.82V134.05a41.48,41.48,0,0,0-5.07-82.66ZM395,117.1v155h-2.88a8.53,8.53,0,1,0,0,17.05H395v57.73a16.55,16.55,0,0,1-16.52,16.53H125.57A16.55,16.55,0,0,1,109,346.91V289.18h3a8.53,8.53,0,0,0,0-17.05h-3V106.72H395Zm17.29-.54V89.43H91.75v27.41a24.2,24.2,0,0,1,3.38-48.16H407.18a24.21,24.21,0,0,1,5.07,47.88Z" transform="translate(-53.62 -51.39)"/><path class="cls-1" d="M194.42,289.18h16.47a8.53,8.53,0,0,0,0-17.05H194.42a8.53,8.53,0,1,0,0,17.05Z" transform="translate(-53.62 -51.39)"/><path class="cls-1" d="M145,289.18h16.47a8.53,8.53,0,1,0,0-17.05H145a8.53,8.53,0,1,0,0,17.05Z" transform="translate(-53.62 -51.39)"/><path class="cls-1" d="M243.83,289.18H260.3a8.53,8.53,0,1,0,0-17.05H243.83a8.53,8.53,0,0,0,0,17.05Z" transform="translate(-53.62 -51.39)"/><path class="cls-1" d="M293.25,289.18h16.47a8.53,8.53,0,1,0,0-17.05H293.25a8.53,8.53,0,1,0,0,17.05Z" transform="translate(-53.62 -51.39)"/><path class="cls-1" d="M342.66,289.18h16.48a8.53,8.53,0,0,0,0-17.05H342.66a8.53,8.53,0,0,0,0,17.05Z" transform="translate(-53.62 -51.39)"/><rect class="cls-1" x="122.99" y="255.95" width="7.05" height="39.09"/><rect class="cls-1" x="154.81" y="255.95" width="7.05" height="39.09"/><rect class="cls-1" x="189.38" y="255.95" width="7.05" height="39.09"/><rect class="cls-1" x="136.38" y="255.95" width="3.52" height="39.09"/><rect class="cls-1" x="141.96" y="255.95" width="3.52" height="39.09"/><rect class="cls-1" x="175.23" y="255.9" width="3.52" height="39.09"/><rect class="cls-1" x="184.1" y="255.9" width="3.52" height="39.09"/><rect class="cls-1" x="131.97" y="255.95" width="1.76" height="39.09"/><rect class="cls-1" x="147.21" y="255.95" width="1.76" height="39.09"/><rect class="cls-1" x="151.12" y="255.95" width="1.76" height="39.09"/><rect class="cls-1" x="180.55" y="255.95" width="1.76" height="39.09"/><rect class="cls-1" x="166.19" y="255.95" width="1.76" height="39.09"/><rect class="cls-1" x="169.58" y="255.9" width="1.76" height="39.09"/><rect class="cls-1" x="163.85" y="255.95" width="0.71" height="39.09"/><rect class="cls-1" x="172.92" y="255.9" width="0.71" height="39.09"/><rect class="cls-1" x="198.63" y="255.95" width="7.05" height="39.09"/><rect class="cls-1" x="230.45" y="255.95" width="7.05" height="39.09"/><rect class="cls-1" x="265.02" y="255.95" width="7.05" height="39.09"/><rect class="cls-1" x="212.02" y="255.95" width="3.52" height="39.09"/><rect class="cls-1" x="217.59" y="255.95" width="3.52" height="39.09"/><rect class="cls-1" x="250.86" y="255.9" width="3.52" height="39.09"/><rect class="cls-1" x="259.74" y="255.9" width="3.52" height="39.09"/><rect class="cls-1" x="207.61" y="255.95" width="1.76" height="39.09"/><rect class="cls-1" x="222.85" y="255.95" width="1.76" height="39.09"/><rect class="cls-1" x="226.76" y="255.95" width="1.76" height="39.09"/><rect class="cls-1" x="256.18" y="255.95" width="1.76" height="39.09"/><rect class="cls-1" x="241.83" y="255.95" width="1.76" height="39.09"/><rect class="cls-1" x="245.22" y="255.9" width="1.76" height="39.09"/><rect class="cls-1" x="239.49" y="255.95" width="0.71" height="39.09"/><rect class="cls-1" x="248.55" y="255.9" width="0.71" height="39.09"/></svg>